<?xml version="1.0" encoding="UTF-8"?>
<svg id="Layer_1" data-name="Layer 1" xmlns="http://www.w3.org/2000/svg" version="1.1" viewBox="0 0 512 512">
  <defs>
    <style>
      .cls-1 {
        fill: black;
        stroke-width: 0px;
      }
    </style>
  </defs>
  <path class="cls-1" d="M435,346.4c-7.3-1.9-15.5-4-23.6-6.1,24.4-18.6,40.1-32.2,41-33.1,7.4-6.5,10.3-16.8,7.4-26.2h0c-2.9-9.5-11.2-16.3-21-17.4-12.8-1.5-35.2-2.7-55.7-3.6,43.5-70.7,56.1-131,56.7-133.9,1.6-7.9-.7-16.2-6.3-22.1-5.5-5.9-13.6-8.8-21.7-7.6-4.1.6-92.3,13-155.3,40.9-43.2-53.4-114.4-73-117.6-73.8-11.9-3.2-24.3,2.8-29.3,14-4.6,10.4-1.6,22.5,7.1,29.6,3.7,3.1,7.9,8.9,12.2,16-47.5-4.4-69.1,18.2-72,21.6-6,7-7.8,16.7-4.5,25.3,3.5,9,11.8,15.2,21.4,16,21.3,1.7,40.7,29,42.9,38.4l-.2,67.3c-14.7,9.4-24.8,19.4-31.3,30.8-10.4,18.2-9.4,36.9-7.7,49.4,3.4,26,18.7,60.7,72,78.6,35,11.7,77.4,13.1,106.2,13.1,124.7,0,189.2-73.4,191.9-76.5,5.6-6.6,7.5-15.6,4.9-23.8s-9.3-14.6-17.7-16.7ZM255.9,431.4c-65.6,0-145.2-8.2-153.4-70-3.4-25.9,2.8-43.3,39.1-62.5l.3-82.6c0-15.7-28.5-59.5-65.9-62.5.3-.3,26.3-30,98.1-.4,0,0-19.9-55.3-41.5-72.9.5.1,72.3,19.4,109.7,72.1l5.5,9.8c58.8-33.3,167.6-48.4,167.6-48.4,0,0-16.2,79.9-78.4,162.3,0,0,72.4,2,99,5,0,0-34.8,30.5-82.2,62.5,0,0,44.1,11.9,75,19.8,0,0-58.3,67.8-173,67.8Z"/>
</svg>