<?xml version="1.0" encoding="UTF-8"?>
<svg xmlns="http://www.w3.org/2000/svg" xmlns:xlink="http://www.w3.org/1999/xlink" viewBox="0 0 512 512">
  <defs>
    <style>
      .cls-1 {
        fill: url(#linear-gradient);
      }

      .cls-1, .cls-2 {
        stroke-width: 0px;
      }

      .cls-2 {
        fill: #fff;
      }
    </style>
    <linearGradient id="linear-gradient" x1="256" y1="60.83" x2="256" y2="456.9" gradientUnits="userSpaceOnUse">
      <stop offset="0" stop-color="#70bcff"/>
      <stop offset="1" stop-color="#1d4ad9"/>
    </linearGradient>
  </defs>
  <g id="Outline">
    <path class="cls-1" d="M459.9,280.98c-2.94-9.44-11.17-16.26-21-17.39-12.83-1.48-35.21-2.7-55.67-3.58,43.51-70.72,56.09-130.97,56.69-133.93,1.61-7.94-.74-16.17-6.29-22.08-5.55-5.91-13.62-8.75-21.65-7.64-4.15.57-92.27,13.04-155.35,40.89-43.16-53.37-114.4-72.97-117.55-73.82-11.9-3.19-24.35,2.77-29.34,14.03-4.61,10.42-1.56,22.53,7.15,29.56,3.7,3.07,7.92,8.88,12.17,15.99-47.53-4.45-69.07,18.19-72,21.58-6.04,6.97-7.75,16.7-4.45,25.31,3.46,9.03,11.81,15.23,21.41,15.98,21.27,1.69,40.68,29.04,42.87,38.44l-.25,67.26c-14.7,9.39-24.79,19.36-31.28,30.78-10.36,18.23-9.36,36.92-7.71,49.4,3.44,25.99,18.72,60.72,72.02,78.58,35.04,11.74,77.38,13.1,106.19,13.1,124.71,0,189.25-73.39,191.93-76.51,5.64-6.56,7.49-15.56,4.89-23.81-2.6-8.25-9.28-14.57-17.66-16.71-7.34-1.88-15.47-3.98-23.58-6.1,24.43-18.56,40.08-32.22,41.05-33.07,7.44-6.52,10.33-16.8,7.39-26.24Z"/>
  </g>
  <g id="Icon">
    <path class="cls-2" d="M141.9,216.45c0-15.66-28.46-59.55-65.92-62.5,0,0-.01,0,0,0,.26-.29,26.28-30.04,98.12-.42,0,0-19.94-55.34-41.48-72.95,0,0,0,0,0,0,.45.12,72.32,19.45,109.69,72.12l5.47,9.85c58.75-33.33,167.65-48.43,167.65-48.43,0,0-16.16,79.88-78.38,162.27,0,0,72.4,1.96,98.99,5.03,0,0-34.76,30.46-82.23,62.45,0,0,44.1,11.85,75.04,19.75,0,0-58.31,67.81-172.98,67.81-65.59,0-145.25-8.16-153.42-69.96-3.43-25.91,2.81-43.32,39.15-62.47l.3-82.56Z"/>
  </g>
</svg>