<?xml version="1.0" encoding="UTF-8"?>
<svg id="pink" xmlns="http://www.w3.org/2000/svg" version="1.1" xmlns:svg="http://www.w3.org/2000/svg" viewBox="0 0 580 400">
  <defs>
    <style>
      .cls-1 {
        fill: #f03;
        stroke-width: 0px;
      }
    </style>
  </defs>
  <path class="cls-1" d="M567.6,62.8c-6.7-24.8-25.8-44-51.2-50.6C471.4,0,289.7,0,289.7,0c0,0-181.3,0-226.2,12.2-25,6.6-44.5,25.8-51.6,50.6C0,106.8,0,199.6,0,199.6c0,0,0,93.4,12,137.8,7.1,24.2,26.6,43.8,51.6,50.6,44.9,12,226.2,12,226.2,12,0,0,181.7,0,226.8-12,25.4-6.8,44.5-26.4,51.2-50.6,12.4-44.4,12.4-137.8,12.4-137.8,0,0,0-92.8-12.4-136.8ZM230,285V115l150,85-150,85Z"/>
</svg>