<svg xmlns="http://www.w3.org/2000/svg" xmlns:xlink="http://www.w3.org/1999/xlink" width="418" height="114" viewBox="0 0 418 114"><defs><linearGradient id="a" x1="209.43" y1="8.23" x2="209.43" y2="109.87" gradientTransform="translate(1.45 -4.87) rotate(1.34)" gradientUnits="userSpaceOnUse"><stop offset="0" stop-color="#70bcff"/><stop offset="1" stop-color="#1d4ad9"/></linearGradient></defs><path d="M49,78.05a29.11,29.11,0,0,1-9.3-6.85,33.69,33.69,0,0,1-6.51-9.86C29,38.33-4,43.78.4,66.81,13.28,114.27,78.33,134.14,99.15,81c6.49,25.26,31.29,41.63,54.49,23.63,5.89,9.21,20.29,8.82,26.37.43,6.76,12,27,9.74,30.12-3.71,2.85-17.71,6-38.78,28.26-39.38-.26,54.64,32.55,62.62,76.72,40.59,18.54,16.27,50.81,12.83,68.17-3.79,20.61,24.35,45,.66,30.18-17.14a223.28,223.28,0,0,0-20-16.5c-3.84-16.5-17.13-31.46-31.63-39.78-15.71-7.94-31.95-3.62-46.76,4-10.05-6.66-29.76.1-42.18-1-.26-20.46-32.5-20-32.53.56-11.18.56-22.65,2.92-32.25,8.78-3-7.64-11.9-12.48-19.73-9.9-1.51-24.44-31.87-14.94-48.27-18.9-17.49-.6-33.53-10.51-51-8.65C72.38,3.84,77.68,24.12,75.46,36.48c0,0-2,34.17-13.52,42.21a8.38,8.38,0,0,1-4.63,1.69C55.56,80.4,53.87,80.31,49,78.05Zm80.19-25.58c.12-.82.25-1.16,0,0ZM147,64.55a43,43,0,0,1-13.35,13.58c-8-12-3.37-24.7-3.13-37.5,8.19,1.23,16.43,2,24.68,2.53A56.09,56.09,0,0,1,147,64.55Zm145.9,12.66c-1.21.59-.84.33,0,0Zm10.25-6.09c-8.13,6.76-18.89,9.13-29.26,9.61-.19-.57-.32-.89-.12,0h0a68.2,68.2,0,0,1-2.15-11.33c.12.89.11.76,0-.39q-.33-3.85-.46-7.74c14.59-1.84,31.51,1.53,44.61-5.91a15.61,15.61,0,0,0,1.67,1.06C312.08,60.84,308.86,67,303.19,71.12Z" fill="url(#a)"/><path d="M112.84,25.27c5.9,1.4,11.86,2.47,17.85,3.38a328.77,328.77,0,0,0,41,3.23c9.66.24,10-14.72.35-15-14.06-.36-28.2-1.12-42.1-3.42-6-1-11.94-2.27-17.81-3.84C105,7.75,98.71,5.12,91.24,6c-3.13.35-5.7,4.14-5.67,7.09a198.36,198.36,0,0,1-3.64,38.58c-1.87,9.83-4.6,20.63-11.63,28.16-3.73,4-8.29,7.09-14,6.59a34.93,34.93,0,0,1-14.43-5A40.2,40.2,0,0,1,23.7,58c-2.64-9.24-17.22-5.66-14.56,3.64A55.62,55.62,0,0,0,34,94.12c12.63,7.51,28.31,10.5,40.87,1.42,11.12-8,17-20.81,20.17-33.81a200.18,200.18,0,0,0,5.37-40.1c1.36.5,2.67,1,3.79,1.37C107.08,23.83,110,24.58,112.84,25.27Z" fill="#fff"/><path d="M164.22,40.86c-2.78,16.79-12.08,35.39-28.08,43.29-3.83,1.89-6,1.82-8.51-1.65a39.77,39.77,0,0,1-5.71-12,51.21,51.21,0,0,1-.28-28.1c2.51-9.29-11.86-13.62-14.38-4.31-3.37,12.45-3.42,26,.81,38.26,4,11.51,11.69,25.76,26,23.88C144.19,99,153.13,91.69,160,83.93c-.17,2.68-.33,5.37-.47,8-.5,9.63,14.51,10,15,.35q1.29-24.64,4.39-49.14C180,34.91,165.61,32.53,164.22,40.86Z" fill="#fff"/><path d="M407,84.86a169.12,169.12,0,0,0-21.75-17,34.93,34.93,0,0,0-5.46-15.66c-5.42-8.45-13.59-17.55-22.67-22.13-11.86-6-23.63-2.12-35.12,2.68-3.77,1.58-4.7,6.89-2.93,10.17,2.09,3.88,6.48,4.48,10.2,2.93,8.27-3.46,16.37-6.25,24.17-.47A55.23,55.23,0,0,1,366.3,58.71,72.74,72.74,0,0,0,354.83,56c-9.19-1.39-19.52-2.53-28.07,2a23.62,23.62,0,0,0-9.17,8.7c-12,12.92-26.83,20.07-44.73,20-9.45,0-9.61-14-10.22-20.92a153.09,153.09,0,0,1-.56-16.32l2.9,0c13.45-.23,26.87-1.2,40.28-2.16,9.55-.69,10-15.66.35-15-14.14,1-28.29,2-42.47,2.18.25-2,.52-4,.86-6,.67-4-.81-8-5-9.33-3.49-1.08-8.68,1-9.35,5-.58,3.46-1.05,6.92-1.43,10.38-7.77.11-15.54.59-23.05,2.58a45.25,45.25,0,0,0-25.83,17.62q.18-7,.77-14c.83-9.6-14.18-9.91-15-.35a231.88,231.88,0,0,0,2,55.08c1.08,7,13.27,7.57,14.47.33,1.64-9.93,3.26-20.57,8.25-29.47,5.13-9.13,13.34-13.77,23.48-15.62a86.88,86.88,0,0,1,14-1.24,155.22,155.22,0,0,0,.92,20.86c1.36,12,4.29,27,17.9,30.59,5.77,1.51,11.94.52,17.77-.18a72.31,72.31,0,0,0,13.81-2.89A65.92,65.92,0,0,0,317,87.57c7.59,14.46,30.56,16.1,44.73,11,8-2.91,15.75-7.69,20.11-15.09a178.41,178.41,0,0,1,14.28,11.76C403.24,101.6,414.15,91.31,407,84.86Zm-68.35.67c-5.52-1.36-12.66-6.36-7.31-12.39,4.87-5.51,15.18-3.38,21.45-2.44a57.66,57.66,0,0,1,16.06,4.93C364,84.53,348.28,87.89,338.6,85.53Z" fill="#fff"/></svg>