<?xml version="1.0" encoding="UTF-8"?>
<svg xmlns="http://www.w3.org/2000/svg" xmlns:xlink="http://www.w3.org/1999/xlink" viewBox="0 0 364.72 114.39">
  <defs>
    <style>
      .cls-1 {
        fill: url(#linear-gradient);
      }

      .cls-1, .cls-2 {
        stroke-width: 0px;
      }

      .cls-2 {
        fill: #fff;
      }
    </style>
    <linearGradient id="linear-gradient" x1="182.36" y1="3.75" x2="182.36" y2="111.37" gradientUnits="userSpaceOnUse">
      <stop offset="0" stop-color="#70bcff"/>
      <stop offset="1" stop-color="#1d4ad9"/>
    </linearGradient>
  </defs>
  <g id="Layer_1" data-name="Layer 1">
    <path class="cls-1" d="M340.27,26.79c-.02-.26-.05-.51-.08-.74-.04-.28-.09-.55-.16-.91-.04-.21-.08-.43-.14-.65-.07-.29-.15-.58-.24-.88-.06-.21-.13-.42-.22-.7-.09-.25-.18-.49-.26-.68-.1-.25-.21-.51-.34-.8-.1-.21-.2-.41-.31-.62-.14-.27-.29-.54-.4-.73-.11-.19-.23-.38-.35-.57-.17-.27-.35-.54-.55-.8-.12-.17-.25-.33-.38-.49-.19-.24-.39-.48-.6-.72-.16-.17-.32-.34-.54-.57-.17-.18-.34-.35-.55-.54-.22-.2-.44-.39-.66-.57-.15-.13-.3-.26-.5-.41l-.26-.19c-8.08-6.1-19.6-9.6-31.64-9.6-7.22,0-14.14,1.25-20.01,3.62-8.21,3.31-15.08,9.1-19.36,16.3-2.21,3.73-3.77,7.72-4.67,11.94-1.97-.56-4.07-.76-6.23-.52-3.79.43-6.45.68-9.68.82.33-5.63.85-11.71,1.65-19.3l.44-4.16L227.65,0l-4.05,1.04c-54.17,13.9-127.05,16.35-177.24,5.96l-5.44-1.13-14.14,22.49,3.37,4.41c8.94,11.71,15.53,21.55,20.73,31,2.14,3.89,4.21,8,4.79,11.64.4,2.49-.14,4.16-.44,4.54-.33.41-2.72,1.94-8.4,1.94h-.3c-2.4-.02-4.38-.26-5.87-.69-3.43-1-6.49-3.95-7.62-7.33-1.13-3.39-.45-7.58,1.68-10.44,5.37-7.17,3.9-17.38-3.28-22.75-7.17-5.37-17.38-3.9-22.75,3.28C.2,55.31-2.29,70.71,2.2,84.16c4.49,13.45,15.74,24.27,29.35,28.23,4.41,1.29,9.21,1.94,14.7,1.99h.57c14.45,0,26.43-5,33.73-14.07.87-1.08,1.66-2.22,2.38-3.4,8.04,11.71,22.11,17.92,35.07,15.23,4.31-.9,8.45-2.73,12.24-5.39,3.02,3.99,7.75,6.41,12.94,6.41,2.09,0,4.14-.4,6.07-1.18,1.33-.53,2.55-1.24,3.66-2.08,2.61,1.77,5.74,2.82,9.12,2.82h.36c8.79-.2,15.77-7.23,15.9-16.03.11-8.15.22-15.84,1.62-22.92.43-2.18.73-2.86.84-3.05.35-.58,2.68-2.38,7.09-3.09,5.39-.88,11.88-.15,18.18.57,1.43.23,2.87.44,4.32.64.74,5.54,1.66,10.14,2.21,12.22,2.93,11.1,9.08,19.52,17.78,24.34,7.6,4.21,19.94,7.33,31.43,7.95,30.74,1.66,60.26,1.15,85.37-1.46,8.91-.93,15.41-8.93,14.48-17.84-.34-3.28-1.64-6.31-3.73-8.78,2.99-2.12,5.29-5.25,6.31-9.06,1.12-4.19.54-8.57-1.64-12.33-2.17-3.76-5.68-6.44-9.88-7.56-3.71-.99-7.68-1.29-11.75-.92-.9-8.74-1.05-16.45-.58-26.27.01-.21.01-.41.01-.62,0-.3,0-.61-.01-.93l-.06-.77ZM122.27,57c-.86,3.96-1.67,7.71-2.9,10.72-.81,1.99-2.01,4.14-3.07,5.97-1.25,2.16-2.59,4.35-3.9,5.71-.33.34-.62.58-.84.74-.59-.3-1.5-1.03-2.02-1.91-2-3.37-2.22-8.93-2.2-13.39.03-5.18.41-8.86,1.23-11.94.64-2.42.69-4.85.25-7.15,5.26.09,10.56.09,15.89.01l-2.44,11.24ZM298.29,59.23c-5.9-.73-6.97-2.41-7.48-3.21-.92-1.45-1.25-4.12-1.18-9.83.02-1.59.36-2.93,1.04-4.08.65-1.1,1.95-2.1,3.55-2.74,3.23-1.3,8.81-1.63,13.36-.75-.02,6.65.28,12.84.94,19.42-3.12,1.61-5.57,1.76-10.22,1.18ZM263.39,73.46c1.86,2.92,4.04,5.49,6.53,7.73-2.14-.09-4.28-.19-6.43-.31-7.47-.4-14.92-2.54-17.42-3.93-.3-.17-1.34-1.3-2.11-4.2-.08-.31-.27-1.2-.51-2.5,4.25-.18,7.69-.5,12.03-.99,1.78-.2,3.45-.69,4.99-1.41.78,1.88,1.74,3.76,2.92,5.61Z"/>
  </g>
  <g id="Layer_2" data-name="Layer 2">
    <g>
      <path class="cls-2" d="M148.09,71.08c0-7.88.28-15.86.82-23.73.3-4.32-2.79-8.13-7.07-8.74-4.28-.61-8.31,2.19-9.22,6.42l-2.53,11.66c-.94,4.31-1.82,8.39-3.31,12.05-1,2.44-2.35,4.89-3.55,6.95-1.74,3.01-3.27,5.4-5.09,7.28-1.65,1.7-3.47,2.83-5.15,3.18-3.84.8-8.28-2.34-10.35-5.84-2.98-5.03-3.35-11.67-3.31-17.5.03-5.89.49-10.19,1.5-13.96,1.17-4.4-1.44-8.92-5.85-10.1-4.4-1.17-8.92,1.44-10.1,5.85-1.77,6.64-2.03,13.18-2.05,18.13-.04,7.62.56,17.45,5.61,25.99,6.02,10.18,17.5,15.77,27.91,13.6,4.94-1.03,9.65-3.74,13.63-7.85,1.19-1.23,2.27-2.53,3.25-3.85.55,2.48,1.29,4.96,2.27,7.39,1.3,3.22,4.39,5.17,7.65,5.17,1.03,0,2.07-.19,3.08-.6,4.23-1.7,6.27-6.51,4.57-10.74-2.53-6.28-2.74-13.69-2.74-20.74Z"/>
      <path class="cls-2" d="M350.59,62.03c-4.68-1.25-10.02-1.04-15.43.6-.34.1-.68.21-1.02.33-.06-.54-.17-1.08-.34-1.61-1.59-11.64-2.12-21.24-1.48-34.65,0-.08,0-.15,0-.22,0-.18,0-.36,0-.54,0-.13-.02-.25-.03-.37-.01-.14-.02-.28-.04-.42-.02-.14-.05-.28-.08-.42-.02-.12-.05-.24-.07-.36-.03-.14-.08-.28-.12-.42-.04-.12-.07-.23-.11-.35-.05-.13-.1-.26-.15-.38-.05-.12-.1-.25-.16-.37-.05-.11-.11-.22-.16-.33-.07-.13-.14-.27-.22-.4-.06-.09-.12-.18-.17-.28-.09-.13-.17-.27-.27-.4-.06-.09-.13-.17-.2-.26-.1-.12-.19-.24-.3-.36-.08-.1-.17-.18-.26-.28-.1-.1-.19-.2-.29-.29-.12-.11-.25-.22-.38-.33-.07-.05-.12-.11-.19-.16-.02-.01-.04-.03-.06-.04-.04-.03-.08-.06-.12-.09-6.72-5.1-16.48-8.02-26.84-8.02h-.02c-6.21,0-12.09,1.05-17.03,3.04-6.59,2.65-12.08,7.26-15.47,12.97-2.9,4.89-4.41,10.38-4.47,16.31-.08,7.64.24,15.73,5.01,23.24,5.23,8.23,13.45,12.93,25.14,14.38,2.52.31,4.84.47,7.03.47,6.72,0,12.1-1.47,17.5-4.27.71,2,2.16,3.68,4.09,4.64,1.16.57,2.41.86,3.67.86,1.32,0,2.63-.32,3.83-.94,2.97-1.56,5.78-3.03,8.57-3.88,2.46-.75,4.66-.9,6.37-.45,4.41,1.17,8.92-1.44,10.1-5.85s-1.44-8.92-5.85-10.1ZM297.31,65.17c-8.55-1.06-11.57-4.22-13.25-6.86-2.14-3.36-2.5-7.59-2.43-14.21.03-3,.76-5.71,2.16-8.07,1.55-2.61,4.19-4.77,7.44-6.08,2.95-1.19,6.81-1.84,10.87-1.84h.01c4.97,0,9.83,1,13.56,2.72-.31,10.84.16,19.67,1.35,29.32-7.01,4.9-11.2,6.08-19.71,5.02Z"/>
      <path class="cls-2" d="M344.57,85.5c-23.85,2.48-52.03,2.95-81.51,1.37-8.63-.46-17.19-2.88-20.87-4.92-3.43-1.9-5.14-6.03-5.96-9.16-.36-1.36-1.36-6.47-1.99-12.37.19,0,.37,0,.56,0,8.84-.04,13.08-.36,19.78-1.12,4.53-.51,7.78-4.6,7.27-9.12s-4.59-7.78-9.12-7.27c-6.47.73-9.97.98-17.99,1.01-.31,0-.62,0-.93,0,.22-8.49.84-16.86,2.04-28.27l-10.25-8.86c-55.23,14.17-129.6,16.65-180.85,6.04l-8.23,13.09c9.19,12.03,15.98,22.2,21.38,31.99,2.49,4.52,4.9,9.38,5.68,14.23.69,4.28-.1,8.32-2.11,10.82-2.52,3.14-7.85,4.93-14.64,4.93-.12,0-.25,0-.37,0-3.18-.03-5.81-.36-8.04-1.01-5.92-1.73-11.01-6.62-12.97-12.48-1.95-5.85-.83-12.83,2.87-17.77,2.73-3.65,1.98-8.82-1.66-11.55-3.65-2.73-8.82-1.98-11.55,1.66-6.94,9.28-8.98,21.88-5.31,32.88,3.67,11,12.87,19.84,24,23.09,3.7,1.08,7.79,1.62,12.5,1.67.18,0,.35,0,.52,0,11.99,0,21.74-3.93,27.5-11.09,4.96-6.16,6.98-14.83,5.54-23.77-1.18-7.34-4.31-13.75-7.52-19.58-3.13-5.69-6.68-11.46-10.81-17.57,47.78,6.39,108.01,3.82,156.8-6.9-.53,6.34-.85,11.91-1.01,17.52-2.61-.29-5.2-.63-7.78-1.05-.13-.02-.26-.04-.39-.05-7.73-.88-16.48-1.88-25.25-.45-5.32.86-10.14,2.59-14.21,5.01.14-4.55-3.43-8.36-7.98-8.5-4.56-.14-8.37,3.42-8.51,7.98-.53,16.27-.33,32.77.6,49.02.25,4.37,3.87,7.78,8.23,7.78.06,0,.12,0,.18,0,4.44-.1,8.01-3.69,8.07-8.13.12-8.52.23-16.57,1.77-24.37.36-1.84.85-3.93,1.75-5.49,1.93-3.36,6.81-6.04,12.74-7,6.46-1.05,13.62-.25,20.55.54,3.47.56,6.98,1.01,10.49,1.35.68,7.91,2.08,15.07,2.69,17.39,2.36,8.94,7.17,15.64,13.92,19.38,6.53,3.62,17.77,6.41,27.98,6.96,30.33,1.63,59.42,1.14,84.11-1.43,4.53-.47,7.82-4.53,7.35-9.06-.47-4.53-4.52-7.83-9.06-7.35Z"/>
    </g>
  </g>
</svg>